General

Complete name                    : T.A.C.T.I.C.A.L{2009}DVDRip.aaaevilacharya.mkv
Format                           : Matroska
File size                        : 693 MiB
Duration                         : 1h 50mn
Overall bit rate                 : 980 Kbps
Movie name                       : aaaevilacharya{TiRG}


Video
ID                               : 1
Format                           : MPEG-4 Visual
Format profile                   : Advanced Simple@L5
Format settings, BVOP            : Yes
Format settings, QPel            : No
Format settings, GMC             : No warppoints
Format settings, Matrix          : Default (H.263)
Codec ID                         : XVID
Codec ID/Hint                    : XviD
Duration                         : 1h 50mn
Bit rate                         : 834 Kbps
Width                            : 720 pixels
Height                           : 352 pixels
Display aspect ratio             : 2.35:1
Original display aspect ratio    : 16:9
Frame rate                       : 23.976 fps
Color space                      : YUV
Chroma subsampling               : 4:2:0
Bit depth                        : 8 bits
Scan type                        : Progressive
Bits/(Pixel*Frame)               : 0.136
Stream size                      : 578 MiB (83%)
Title                            : aaaevilacharya{TiRG}
Writing library                  : XviD 1.2.1 
Language                         : English

Audio
ID                               : 2
Format                           : MPEG Audio
Format version                   : Version 1
Format profile                   : Layer 3
Mode                             : Joint stereo
Mode extension                   : MS Stereo
Codec ID                         : A_MPEG/L3
Codec ID/Hint                    : MP3
Duration                         : 1h 47mn
Bit rate mode                    : Variable
Bit rate                         : 128 Kbps
Channel(s)                       : 2 channels
Sampling rate                    : 48.0 KHz
Stream size                      : 98.2 MiB (14%)
Title                            : aaaevilacharya{TiRG}
Writing library                  : LAME3.90.

Language                         : English

SCREENSHOTS
 
http://img12.imageshack.us/img12/5705/4551051020a.jpg 
http://img26.imageshack.us/img26/8320/vlcsnap2011010713h45m55.png 
http://img411.imageshack.us/img411/6556/vlcsnap2011010713h37m44.png 
http://img33.imageshack.us/img33/3489/vlcsnap2011010713h38m33.png 
http://img33.imageshack.us/img33/4302/vlcsnap2011010713h40m24.png 
http://img814.imageshack.us/img814/511/vlcsnap2011010713h40m45.png 
http://img525.imageshack.us/img525/4677/vlcsnap2011010713h42m02.png 
http://img585.imageshack.us/img585/410/vlcsnap2011010713h42m18.png
